<mxfile host="65bd71144e">
    <diagram id="2KkD0CgObBjZfUWfNvDN" name="Page-1">
        <mxGraphModel dx="736" dy="395" grid="1" gridSize="10" guides="1" tooltips="1" connect="1" arrows="1" fold="1" page="1" pageScale="1" pageWidth="827" pageHeight="1169" math="0" shadow="0">
            <root>
                <mxCell id="0"/>
                <mxCell id="1" parent="0"/>
                <mxCell id="10" value="" style="edgeStyle=none;html=1;" edge="1" parent="1" source="2" target="9">
                    <mxGeometry relative="1" as="geometry"/>
                </mxCell>
                <mxCell id="2" value="greet (name)" style="rounded=0;whiteSpace=wrap;html=1;" vertex="1" parent="1">
                    <mxGeometry x="260" y="290" width="120" height="60" as="geometry"/>
                </mxCell>
                <mxCell id="3" value="Input (str)" style="whiteSpace=wrap;html=1;rounded=0;strokeColor=none;" vertex="1" parent="1">
                    <mxGeometry x="60" y="290" width="120" height="60" as="geometry"/>
                </mxCell>
                <mxCell id="5" value="" style="edgeStyle=none;orthogonalLoop=1;jettySize=auto;html=1;exitX=1;exitY=0.5;exitDx=0;exitDy=0;" edge="1" parent="1" source="3">
                    <mxGeometry width="100" relative="1" as="geometry">
                        <mxPoint x="190" y="320" as="sourcePoint"/>
                        <mxPoint x="260" y="319.5" as="targetPoint"/>
                        <Array as="points"/>
                    </mxGeometry>
                </mxCell>
                <mxCell id="9" value="Output (none)" style="whiteSpace=wrap;html=1;rounded=0;strokeColor=none;" vertex="1" parent="1">
                    <mxGeometry x="460" y="290" width="120" height="60" as="geometry"/>
                </mxCell>
                <mxCell id="11" value="" style="edgeStyle=none;html=1;" edge="1" parent="1" source="12" target="15">
                    <mxGeometry relative="1" as="geometry"/>
                </mxCell>
                <mxCell id="12" value="goldilocks (bed)" style="rounded=0;whiteSpace=wrap;html=1;" vertex="1" parent="1">
                    <mxGeometry x="260" y="410" width="120" height="60" as="geometry"/>
                </mxCell>
                <mxCell id="13" value="Input (int)" style="whiteSpace=wrap;html=1;rounded=0;strokeColor=none;" vertex="1" parent="1">
                    <mxGeometry x="60" y="410" width="120" height="60" as="geometry"/>
                </mxCell>
                <mxCell id="14" value="" style="edgeStyle=none;orthogonalLoop=1;jettySize=auto;html=1;exitX=1;exitY=0.5;exitDx=0;exitDy=0;" edge="1" parent="1" source="13">
                    <mxGeometry width="100" relative="1" as="geometry">
                        <mxPoint x="190" y="440" as="sourcePoint"/>
                        <mxPoint x="260" y="439.5" as="targetPoint"/>
                        <Array as="points"/>
                    </mxGeometry>
                </mxCell>
                <mxCell id="15" value="Output (none)" style="whiteSpace=wrap;html=1;rounded=0;strokeColor=none;" vertex="1" parent="1">
                    <mxGeometry x="460" y="410" width="120" height="60" as="geometry"/>
                </mxCell>
                <mxCell id="16" value="" style="edgeStyle=none;html=1;" edge="1" parent="1" source="17" target="20">
                    <mxGeometry relative="1" as="geometry"/>
                </mxCell>
                <mxCell id="17" value="fibonacci_stop(max_v)" style="rounded=0;whiteSpace=wrap;html=1;" vertex="1" parent="1">
                    <mxGeometry x="250" y="640" width="120" height="60" as="geometry"/>
                </mxCell>
                <mxCell id="18" value="Input (int)" style="whiteSpace=wrap;html=1;rounded=0;strokeColor=none;" vertex="1" parent="1">
                    <mxGeometry x="60" y="640" width="120" height="60" as="geometry"/>
                </mxCell>
                <mxCell id="19" value="" style="edgeStyle=none;orthogonalLoop=1;jettySize=auto;html=1;exitX=1;exitY=0.5;exitDx=0;exitDy=0;entryX=0;entryY=0.5;entryDx=0;entryDy=0;" edge="1" parent="1" source="18" target="17">
                    <mxGeometry width="100" relative="1" as="geometry">
                        <mxPoint x="200" y="450" as="sourcePoint"/>
                        <mxPoint x="270" y="449.5" as="targetPoint"/>
                        <Array as="points">
                            <mxPoint x="240" y="670"/>
                        </Array>
                    </mxGeometry>
                </mxCell>
                <mxCell id="20" value="Output: list[&lt;span class=&quot;hljs-type&quot;&gt;int&lt;/span&gt;]&amp;nbsp;" style="whiteSpace=wrap;html=1;rounded=0;strokeColor=none;" vertex="1" parent="1">
                    <mxGeometry x="470" y="640" width="120" height="60" as="geometry"/>
                </mxCell>
                <mxCell id="21" value="" style="edgeStyle=none;html=1;" edge="1" source="22" target="25" parent="1">
                    <mxGeometry relative="1" as="geometry"/>
                </mxCell>
                <mxCell id="22" value="square_list(nums)" style="rounded=0;whiteSpace=wrap;html=1;" vertex="1" parent="1">
                    <mxGeometry x="260" y="525" width="120" height="60" as="geometry"/>
                </mxCell>
                <mxCell id="23" value="&lt;span class=&quot;hljs-keyword&quot;&gt;Input&lt;/span&gt;: list[&lt;span class=&quot;hljs-type&quot;&gt;int&lt;/span&gt;]&amp;nbsp;" style="whiteSpace=wrap;html=1;rounded=0;strokeColor=none;" vertex="1" parent="1">
                    <mxGeometry x="60" y="525" width="120" height="60" as="geometry"/>
                </mxCell>
                <mxCell id="24" value="" style="edgeStyle=none;orthogonalLoop=1;jettySize=auto;html=1;exitX=1;exitY=0.5;exitDx=0;exitDy=0;" edge="1" source="23" parent="1">
                    <mxGeometry width="100" relative="1" as="geometry">
                        <mxPoint x="190" y="555" as="sourcePoint"/>
                        <mxPoint x="260" y="554.5" as="targetPoint"/>
                        <Array as="points"/>
                    </mxGeometry>
                </mxCell>
                <mxCell id="25" value="Output: list[&lt;span class=&quot;hljs-type&quot;&gt;int&lt;/span&gt;]" style="whiteSpace=wrap;html=1;rounded=0;strokeColor=none;" vertex="1" parent="1">
                    <mxGeometry x="460" y="525" width="120" height="60" as="geometry"/>
                </mxCell>
                <mxCell id="32" value="" style="edgeStyle=none;html=1;" edge="1" source="33" target="36" parent="1">
                    <mxGeometry relative="1" as="geometry"/>
                </mxCell>
                <mxCell id="33" value="clean_pitch(x, status)" style="rounded=0;whiteSpace=wrap;html=1;" vertex="1" parent="1">
                    <mxGeometry x="250" y="750" width="120" height="60" as="geometry"/>
                </mxCell>
                <mxCell id="34" value="&lt;span class=&quot;hljs-keyword&quot;&gt;Input&lt;/span&gt;: list[&lt;span class=&quot;hljs-type&quot;&gt;float&lt;/span&gt;], list[&lt;span class=&quot;hljs-type&quot;&gt;int&lt;/span&gt;]" style="whiteSpace=wrap;html=1;rounded=0;strokeColor=none;" vertex="1" parent="1">
                    <mxGeometry x="60" y="750" width="120" height="60" as="geometry"/>
                </mxCell>
                <mxCell id="35" value="" style="edgeStyle=none;orthogonalLoop=1;jettySize=auto;html=1;exitX=1;exitY=0.5;exitDx=0;exitDy=0;entryX=0;entryY=0.5;entryDx=0;entryDy=0;" edge="1" source="34" target="33" parent="1">
                    <mxGeometry width="100" relative="1" as="geometry">
                        <mxPoint x="200" y="560" as="sourcePoint"/>
                        <mxPoint x="270" y="559.5" as="targetPoint"/>
                        <Array as="points">
                            <mxPoint x="240" y="780"/>
                        </Array>
                    </mxGeometry>
                </mxCell>
                <mxCell id="36" value="Output: list[&lt;span class=&quot;hljs-type&quot;&gt;float&lt;/span&gt;]" style="whiteSpace=wrap;html=1;rounded=0;strokeColor=none;" vertex="1" parent="1">
                    <mxGeometry x="470" y="750" width="120" height="60" as="geometry"/>
                </mxCell>
            </root>
        </mxGraphModel>
    </diagram>
</mxfile>